<svg xmlns="http://www.w3.org/2000/svg" width="1280" height="1280" version="1.1" viewBox="0 0 1956 1956"><path fill="#FDC90F" d="m0 0 6 2 16 8 30 14 36 16 39 18 39 17 12 7 1 2v809l4 4 16 8 19 9 33 15 68 30 18 8 15 7 24 11 30 13 33 15 35 15 34 14 21 9 3 3v7l3 3 4-1 1-2h4l2 9h5l12-5 16-7 21-9 19-8 24-10 26-11 40-18 25-11 73-32 32-14 40-18 34-16 27-13 5-4 1-2v-805l2-6 19-9 16-8 15-8 5-2v167l-1 18-2 8-10 9-8 6-6 7-9 16-3 12v25l4 13 8 13 1 3 4 2 1 1-1 9-6 25-8 53-3 31v58l3 32 1 3 14 6 4 3h101l2-5 7-2 5-1v-107l-1-20-4-31-10-40-3-10 1-6 7-8 5-12 2-8 1-11v-14l-2-15-6-12-9-10-16-11-4-4-1-6-1-210 3-3 18-8 23-11 13-8 4 1v544l-1 428-1 34-5 3-12 6-35 15-18 8-37 17-28 12-33 15-38 17-30 13-20 9-17 7-10 5-18 8-23 10-30 14-48 21-30 13-26 12-22 10-15 7-23 11-15 7-4 1-13 1h-19l-13-4-16-7-20-8-21-9-34-16-28-12-37-16-20-9-32-15-140-62-37-17-35-15-51-23-37-16-20-9-7-5-1-3z" transform="translate(414,364)"/><path fill="#FEC90F" d="m0 0 9 2 22 11 26 12 18 8 30 14 30 13 28 13 25 11 27 12 35 16 20 9 30 13 58 26 35 15 27 12 29 13 35 16 47 21 4 2v2l-16 8-22 10-23 11-5 3-1 22-1 78-12 6h-2l1-88-8 2h-5l1-4-2-5-10 4-40 19-33 15-19 9-68 31-29 13-24 11-33 15-18 8-40 18-29 13-37 17-30 14-24 11-18 8-5-1-31-15-21-9-34-16-30-13-20-9-70-31-35-16-30-13-35-16-29-13-31-14-27-12-20-9-15-7-70-32-32-14-9-3v-2l20-8 39-17 28-12 20-9 42-18 26-12 30-13 41-18 30-13 27-12 105-46 30-13 43-19 32-15 24-11z" transform="translate(985,10)"/><path fill="#FDC90F" d="m0 0h2v311l-2 6-7 7-14 11-15 12-12 8-1 3v19l-1 22-3 18-6 27-5 16-8 20-9 17-11 18-12 16-12 13-12 12-11 9-13 10-15 10-25 12-27 9-21 6-15 7h-2v51l2 9 6 9 5 6 1 3 1 14v161l-1 10-6 9-7 7-10 5-4 1h-13l-11-4-8-6-7-8-3-8-1-66v-104l2-13 6-10 5-6 1-14v-45l-25-10-33-10-23-10-14-8-12-9-10-8-10-9-8-7-10-10-9-11-10-13-11-18-12-23-8-21-7-26-2-12-2-36-1-25-5-2-19-14-13-11-11-9-4-6-1-83v-176l1-52 5 2 19 10 23 11 31 15 28 13 22 10 75 35 33 16 16 7 10 5 17 5 9-1 16-7 34-16 29-13 37-17 30-14 36-17 28-13 45-22zm-464 374-18 9-1 1v18l4 29 6 26 6 15 8 16 9 15 10 13 12 13 12 12 14 11 18 11 16 8 17 8 14 5 36 8 10 1h17l22-2 29-6 17-6 20-9 15-8 16-11 14-11 14-12 10-10 13-17 12-21 8-20 6-21 3-20 1-13v-25l-3-1h-7l-4-6h-7l-10 4-31 9-17 4-19 9-7 8-5 12v16l3 8 9 7 2 35 1 4-11-7-5-4-4-1-5 5-5-1-8-7-9-9-9-4-6-4-3-3h-5l-2 4-3 1-7-6-7-8-14-15-7-7-3-8-19-8-57-9-29-5-41-9-31-10z" transform="translate(1254,481)"/><path fill="#FDC90F" d="m0 0h2v311l-2 6-7 7-14 11-15 12-4 3h-2l-3-18-12-35-8-17-11-20-8-12-12-16-15-16-13-12-16-12-19-12-15-8-28-11-17-5-33-6-14-2h-23l-27 4-15 3-12 3-18 6-12 5-26 13-12 8-12 9-14 11-13 12-9 11-8 11-5 8h-2l-2 5-11 17-8 16-6 13-7 21-3 11-2 13-2 1-16-12-11-9-14-12-2-4-1-83v-176l1-52 5 2 19 10 23 11 31 15 28 13 22 10 75 35 33 16 16 7 10 5 17 5 9-1 16-7 34-16 29-13 37-17 30-14 36-17 28-13 45-22z" transform="translate(1254,481)"/><path fill="#FDC90F" d="m0 0 10 4 13 6 5 2-2 2-4 2v18l4 29 6 26 6 15 8 16 9 15 10 13 12 13 11 11 14 11 18 11 16 8 17 8 14 5 36 8 10 1h17l22-2 29-6 17-6 20-9 15-8 16-11 14-11 14-12 9-9 13-17 12-21 8-20 6-21 3-20 1-13v-26l5-4 10-4 7-4h3l1 9-1 22-3 18-6 27-5 16-8 20-9 17-11 18-12 16-12 13-12 12-11 9-13 10-15 10-25 12-27 9-21 6-15 7h-2v51l2 9 6 9 5 6 1 3 1 14v161l-1 10-6 9-7 7-10 5-4 1h-13l-11-4-8-6-7-8-3-8-1-66v-104l2-13 6-10 5-6 1-14v-45l-25-10-33-10-23-10-14-8-12-9-10-8-10-9-8-7-10-10-9-11-10-13-11-18-12-23-8-21-7-26-2-12-2-36v-10z" transform="translate(750,849)"/><path fill="#FDFDFD" d="m0 0h23l26 4 25 5 24 8 17 7 17 9 14 9 11 8 11 9 12 11 8 8 7 8 14 19 14 24 11 23 12 37 1 15-6 4-1 3v13l-1-3-17 8-7 3h-7l-3-3-3-21-4-18-8-24-8-18-11-17-11-14-12-13-9-9-2-1v-2l-4-2-11-9-13-8-15-8-14-6-18-6-19-4-11-1h-39l-22 3-24 6-16 7-16 8-16 10-11 9-13 11-10 10-8 11-10 14-10 19-9 23-6 22-3 15-1 13-1 3-4 2-13-6-14-6h-2l-1-15-5-2-3-2 2-15 5-18 7-19 8-16 7-13 8-12 3-5h2l2-5 10-14 13-15 12-11 13-10 14-10 13-8 16-8 11-5 18-7 13-4 17-3 24-4z" transform="translate(965,628)"/><path fill="#FEF1C9" d="m0 0 7 3v2h2l7 8 7 4 7 1 2-4h9l3 2v2l3 1 4 4 6 5 4 6 10 6 7-1 4-2 8 1 6 8 6 4 6 7 11 7 9-1 1-1h6l13 10 36 36 14 15 12 11 2 3-1 6-2 2-5 1-6-1h-8l-7 2-20 2-3 1-33 3h-12l-4-1v-2l-5-1-4-6-6-5v-2l-4-2-16-16-9-12-1-5 2-4 3-3-1-7-5-5v-2l-3-1v-2l-4-2-7-8-5-6-10-8-7-8-10-11v-2l-4-2-9-9-8-7-4-6v-6z" transform="translate(861,747)"/><path fill="#FBE0A1" d="m0 0 1 4 1 5 3 1 3-1 1-2h4v2l-16 9-15 6-8 5-6 5-2 3-1 9 2 9 3 3 6 3h19l5-3 7-1 11 2 12 6 6 4 8 3 12 5 16 8 5 5 6 8v8l-7 14h-2l-2 4-2 10-2 7-9 16-4 10-3 12-6 9-3 4-1 3-9 1-1-7-12-6-10-4-8-4-15-6-8-6 1-4 10 1 16 7 10 5 13 5h10l5-5 1-3v-9l-5-5-8-5-16-6-10-5-10-4-4-2-2-5 3-2 7 1 19 8 14 6 6 4 10 2 7-1 4-10v-8l-1-3-14-6-17-7-17-8-4-4v-2l4-2 12 3 16 7 7 4 4 3 7 3h7l6-4 3-5v-8l-4-6-21-11-12-4-9-5-8-3-9-1-12 4-14 5-10-2-11-8-6-7-4-8-2-11 4-10 5-6 11-9 10-6 10-5 8-3z" transform="translate(945,1418)"/><path fill="#FEF1C9" d="m0 0h37l16 2 16 3 16 5 10 3 12 5 21 11 13 10 8 6v2l5 2v2h2v2h2v2h2v2l4 2 8 8 7 8 10 13 7 12 5 11 5 12 9 27 8 28 2 2h6l8-4 6-4 5-1 1 1v10l-1-3-17 8-7 3h-7l-3-3-3-21-4-18-8-24-8-18-11-17-11-14-12-13-9-9-2-1v-2l-4-2-11-9-13-8-15-8-14-6-18-6-19-4-11-1h-39l-22 3-24 6-16 7-16 8-16 10-11 9-13 11-10 10-8 11-10 14-10 19-9 23-6 22-3 15-1 13-1 3-4 2-13-6-14-6h-2l1-5 18 6h7l3-5 4-20 2-5 5-19 5-13 12-24 8-13 13-18 12-12 4-3h2v-2l5-2v-2l14-10 18-11 16-8 13-5 22-6z" transform="translate(954,670)"/><path fill="#FDEFC5" d="m0 0h23l26 4 25 5 24 8 17 7 17 9 14 9 11 8 11 9 12 11 8 8 7 8 14 19 14 24 11 23 12 37 1 15-4 3h-2l-2-21-6-20-8-22-5-9-3-7-6-11-15-22v-2h-2l-11-14-1-3-4-2-5-6-7-5v-2l-4-2-14-11-15-9-24-12-14-6-10-4-19-6-33-6-10-1h-19l-21 2-25 5-15 4-19 7-17 9-16 8-11 7-9 7-10 8h-2v2h-3l-2 4h-2v2l-8 7-5 7h-2v2h-2l-2 4-7 11-5 7h-2l-2 5-7 10-10 17-10 24-5 19-4 20-1 3-5-2 2-15 5-18 7-19 8-16 7-13 8-12 3-5h2l2-5 10-14 13-15 12-11 13-10 14-10 13-8 16-8 11-5 18-7 13-4 17-3 24-4z" transform="translate(965,628)"/><path fill="#FBDFA0" d="m0 0 7 3v2h2l7 8 7 4 7 1 2-4h9l3 2v2l3 1 4 4 6 5 4 6 10 6 7-1 4-2 8 1 6 8 6 4 6 7 11 7 9-1 1-1h6l13 10 36 36 14 15 12 11 2 3-1 6-2 2-5 1-6-1h-8l-7 2-20 2-3 1-33 3h-12l-4-1v-2l-5-1-4-6-6-5v-2l-4-2-16-16-9-12-1-5 2-4 3-3-1-7-5-5v-2l-3-1v-2l-4-2-7-8-5-6-10-8-7-8-10-11v-2l-4-2-9-9-8-7-4-6v-6zm-2 4-1 4 4 6 12 10h2l2 4h2l1 3 5 5 6 7h2l2 4h2l1 3 5 2v2l9 7 8 11 8 8h2l2 5 3 6v6h-2l-2 5 1 6 9 10 5 6 8 7 14 14 7 3h12l9-1 21-1 8-2 6-3 10-1 4-2 9 1 9 2 4-4-5-8-7-6-5-5-4-5-6-5h-2l-2-4-6-7-7-5-7-8h-2l-1-3-2-1-2-4-5-3h-2v-2l-5-3-7 1-6 2-8-3-3-1v-2l-10-7-8-7h-2v-2l-4-4-1-2h-6l-5 3h-7l-7-5-8-8-3-5h-2l-1-3-8-7-7 1-3 2h-7l-11-7-8-9z" transform="translate(861,747)"/><path fill="#FDF0C8" d="m0 0h7l2 2 1 11 1 1h11l9 2 8 6 3 4 3 7v7l-4 13-6 5-6 2h-24l-5-4-2-8v-46z" transform="translate(1013,227)"/><path fill="#FDF0C7" d="m0 0h20l10 2 3 4v35l-3 3-20 1-13-2-7-6-4-7-1-10 5-13 5-5z" transform="translate(957,243)"/><path fill="#FDF0C6" d="m0 0h8l7 2 10 1 4 3 1 8-1 7v21l-3 3-2 1h-27l-8-4-6-12-1-8 2-10 4-6z" transform="translate(795,241)"/><path fill="#FBE0A1" d="m0 0h10l4 1h10l5-1h11l4 2 2 5 1 11v24l-1 2h-7l-3-9v-18l-1-4-4-1h-8l-2 3-2 12v13l-2 4h-5l-3-4-2-21-3-7-3-2h-6l-3 1-1 11-3 17-4 4-4-1-2-2v-36l3-2z" transform="translate(1223,243)"/><path fill="#FDF1C9" d="m0 0 5 2 4 6 3 6 5-1 3-10 2-2h8l1 5-5 11-3 12-3 9-4 3h-6l-4-4-3-11h-7l-2 4-1 9-5 4-5-1-8-16-7-21 1-4h6l5 5 5 8 4 2 3-12 3-3z" transform="translate(729,244)"/><path fill="#FBE0A1" d="m0 0h40l22 3 22 6 17 6 22 11 16 11 21 18 3 3v2l3 1 7 8 13 17 8 13 7 14 7 20 5 16 6 29 2 5 10-2 8-4 9-4h2l1 6-1-3-17 8-7 3h-7l-3-3-3-21-4-18-8-24-8-18-11-17-11-14-12-13-9-9-2-1v-2l-4-2-11-9-13-8-15-8-14-6-18-6-19-4-11-1h-39l-22 3-24 6-16 7-16 8-16 10-11 9-13 11-10 10-8 11-10 14-10 19-9 23-6 22-3 15-1 13-1 3-4 2-13-6-14-6h-2v-2l6 1 13 5 9 2 3-5 3-17 8-30 9-21 8-16 9-14 3-5h2l2-5 8-10h2l2-4 11-9 12-10 11-7 13-8 16-8 16-6 14-4z" transform="translate(954,673)"/><path fill="#FBE0A1" d="m0 0h9l2 2v9l1 2 6 1h10l7 7 3 6 2 19v10l-2 3h-5l-4-5-1-17-2-8-2-3h-6l-3 3-3 6-2 21-3 3-5-1-2-2-1-21-1-25-2-7z" transform="translate(1079,227)"/><path fill="#FDF0C8" d="m0 0h15l4 6 2 8 1 16v12l-2 2h-5l-3-5-3-23-1-3-3-2h-8l-3 12-1 18-4 3-5-1-2-3-1-15v-21l3-2z" transform="translate(901,243)"/><path fill="#FBE0A1" d="m0 0h5l3 3 3 26 5 5 8-2 2-5 2-10v-13l1-2h6l2 1 1 3v13l-6 20-5 5-3 1h-9l-9-4-5-5-4-11v-22z" transform="translate(1142,243)"/><path fill="#FEF1C9" d="m0 0h8l3 3 1 9-2 3-4 1v4l7 5 5 6 1 6-4 5-8 5-3 1h-7l-4-2-3-5v-5l2-1 12-1-1-4-10-6-6-9v-7l9-6z" transform="translate(663,241)"/><path fill="#FEF1C9" d="m0 0 3 2-9 13-1 2v13l4 8 8 4 4 1h13l6-2h10v3l-13 5-10 4h-9l-11-6-7-8-4-8-1-6 2-11 4-6z" transform="translate(916,1439)"/><path fill="#FBE0A1" d="m0 0h6l3 3-1 9-1 1 1 7 1 15v24l-2 3-7-1-2-5v-37l1-1-1-16z" transform="translate(1294,225)"/><path fill="#FDF0C8" d="m0 0h10l1 1v5l-7 6-1 3-1 26-3 3-5-1-3-5-1-9v-25l3-3z" transform="translate(852,243)"/><path fill="#FEC90F" d="m0 0h8l8 7 1 4v8l-7 6-3 1h-7l-7-4-2-4v-10l6-7z" transform="translate(1031,251)"/><path fill="#FEF1C9" d="m0 0h11l4 1h9l12-1 5 3 2 4 2 26-2 4-4-1-1-3v-15l-3-10-12-1-4 1-3 11-5 1-6-11-8-5z" transform="translate(1224,245)"/><path fill="#FEC90F" d="m0 0h9l8 6 1 1v12l-3 3-3 2-5 1h-8l-6-5-1-3v-11l6-5z" transform="translate(961,252)"/><path fill="#FBE0A1" d="m0 0h7l2 2 1 11 1 1h11l9 2 8 6 3 4 3 7v7l-4 13-6 5-6 2h-24l-5-4-2-8v-46zm3 2-3 2 1 18-1 11v19l3 5 3 2h10l13-1 8-3 4-6 2-7v-9l-4-8-5-4-4 1 1 5h2l3 10-1 9h-2l-3 3h-2l7-6v-8l-2-5-7-6h-8l-5 3-3 2 1-3 5-2 4-4-1-2-11-2-1-11-2-3z" transform="translate(1013,227)"/><path fill="#FBE0A1" d="m0 0 5 2 4 6 3 6 5-1 3-10 2-2h8l1 5-5 11-3 12-3 9-4 3h-6l-4-4-3-11h-7l-2 4-1 9-5 4-5-1-8-16-7-21 1-4h6l5 5 5 8 4 2 3-12 3-3zm-2 3-5 5-2 9-4 1-6-7-4-6-3-1-2 2 1 7 8 21 3 5h5l3-3 1-9 3-3 7 1 3 7 2 4h2v2l7-1 3-5 3-8 2-14-2-1-3 1-2 5-7 1-6-11-2-2z" transform="translate(729,244)"/><path fill="#FEC90F" d="m0 0h7l7 4 2 4 1 8-3 5-6 4-6 1-9-5-2-4-1-7 3-6z" transform="translate(797,252)"/><path fill="#FBE0A1" d="m0 0 3 1-32 16-11 7-11 8-14 11-13 12-10 11-10 15-11 15-9 14-12 24-7 21-3 12-2 11-2 5-2-1 3-16 4-15 7-19 8-16 7-13 8-12 3-5h2l2-5 10-14 13-15 12-11 13-10 14-10 13-8 16-8z" transform="translate(886,647)"/><path fill="#FEF1C9" d="m0 0 5 1 1 1 1 11 7 2 1 1v5l-7 10-1 4-1 15-1 2-4-1-1-1-1-11 1-16v-12l-1-10z" transform="translate(1081,229)"/><path fill="#FBE0A1" d="m0 0h15l4 6 2 8 1 16v12l-2 2h-5l-3-5-3-26 2 2 5 14v6l3 3v-23l-3-10-2-2-6-1-17 1-7 2 1 27-1 5 5 1 3-15h1v18l-4 3-5-1-2-3-1-15v-21l3-2z" transform="translate(901,243)"/><path fill="#FBE0A1" d="m0 0h8l3 3 1 9-2 3-4 1v4l7 5 5 6 1 6-4 5-8 5-3 1h-7l-4-2-3-5v-5l2-1 12-1-1-4-10-6-6-9v-7l9-6zm-1 2-8 6-2 5 5 9 10 7 1 6-6 2-3 2 1 4 5 1 8-2 5-4 1-5-4-7-9-7-1-4 3-3 3-1v-6l-3-3z" transform="translate(663,241)"/><path fill="#FBE0A1" d="m0 0 5 2 16 13 12 11 8 8 7 8 14 19 14 24 11 23 12 37 1 15-3-1-3-19-6-20-8-20-7-15-13-22-10-14-4-6-5-5-11-12-12-11-17-13z" transform="translate(1112,672)"/><path fill="#FBE0A1" d="m0 0h8l7 2 10 1 4 3 1 8-1 7v21l-3 3-2 1h-27l-8-4-6-12-1-8 2-10 4-6zm-3 3-7 4-4 6-2 11 3 11 3 5 4 3 3 1h26l4-3v-16l1-6v-11l-4-4-12-1z" transform="translate(795,241)"/><path fill="#FBE0A1" d="m0 0h20l10 2 3 4v35l-3 3-20 1-13-2-7-6-4-7-1-10 5-13 5-5zm0 2-6 4v2h-2l-5 10v10l4 8 7 6 3 1h15l14-1 2-2v-30l-3-6-2-1-17-1z" transform="translate(957,243)"/><path fill="#FBE0A1" d="m0 0h6l-5 4-1 5 1 18 4-1 3-13 2-1v8l-3 17-4 4-4-1-2-2v-36z" transform="translate(1204,245)"/><path fill="#FEF1C9" d="m0 0 10 1-2 5-4 8-2 11-5 1-1-2-1-17 2-5z" transform="translate(1208,246)"/><path fill="#FDF1C9" d="m0 0h2l4 8 8 18 7 22 3 14 1 9 1 2-5 2-2-21-6-20-8-22-5-9z" transform="translate(1185,760)"/><path fill="#FEF1C9" d="m0 0 2 1 2 19 3 9 2 4-1 2-5-2-1-3-3-1-2-4-1-12 1-12 3 1z" transform="translate(1146,248)"/><path fill="#FDC913" d="m0 0h7v28l-3 1-4-1-1-2v-21z" transform="translate(447,1758)"/><path fill="#FBE0A1" d="m0 0h10l1 1v5l-8 6 2-4 2-6-12 1-2 2v24l1 8 1 3 5-1 1-10h1v12l-3 3-5-1-3-5-1-9v-25l3-3z" transform="translate(852,243)"/><path fill="#FEF1C9" d="m0 0 4 1 1 5 1 21-2 5-3-1-1-2z" transform="translate(1295,249)"/><path fill="#FBE0A1" d="m0 0 10 1 24 8 17 7 17 9 14 9 1 2-5-2-22-12-19-9-25-9-12-3z" transform="translate(1029,636)"/><path fill="#FCE9B6" d="m0 0h10v2l-14 3-14 4-5 1-6 1-5 1 4-3 24-8z" transform="translate(923,635)"/><path fill="#FDFDFD" d="m0 0 4 1 5 6 4 4-2 3h-8l-3-3z" transform="translate(1016,269)"/><path fill="#FBE0A1" d="m0 0h7l6 3 5 4 1 2v10l-2 4-1-2v-12l-8-6h-9l-6 4-1 1-1 11h-1v-12l5-5z" transform="translate(962,250)"/><path fill="#FDFDFD" d="m0 0h2l1 6v11l-1 6-4-2v-10l1-7z" transform="translate(849,248)"/><path fill="#FEF1C9" d="m0 0 4 1 4 8-1 5-3 1v-3h-2l-4-8z" transform="translate(1107,247)"/><path fill="#FDFDFD" d="m0 0 5 1 2 2v7l-4 1-5-5-1-5z" transform="translate(814,247)"/><path fill="#FEF1C9" d="m0 0 5 1-1 6h-2l-1 3-5-1-2-4v-2z" transform="translate(985,1597)"/><path fill="#FBE0A1" d="m0 0 3 3 1 2v9l-6 7-6 3-6-1-6-4 2-1 6 3 8-2 5-4 1-5z" transform="translate(811,256)"/><path fill="#FDFDFD" d="m0 0 2 1-1 7-2 2-5-1-1-5 4-3z" transform="translate(745,265)"/><path fill="#FEF1C9" d="m0 0 7 1-1 7h-5l-4-5v-2z" transform="translate(992,1568)"/><path fill="#FCEBBB" d="m0 0h10v2l-14 3-8-1 3-2z" transform="translate(923,635)"/><path fill="#FEF1C9" d="m0 0 5 1-2 5-7 1-2-2z" transform="translate(1166,277)"/><path fill="#FDFDFD" d="m0 0h4v7l-5 1-2-2 1-4z" transform="translate(982,274)"/><path fill="#FDFDFD" d="m0 0 3 1 3 6-1 3-4-1-2-3v-5z" transform="translate(912,247)"/><path fill="#FBE0A1" d="m0 0 5 2 1 3-9-1h-2l-3 12h-1v-7l3-6z" transform="translate(903,250)"/><path fill="#FDFDFD" d="m0 0h5l-1 6-5 1-1-3z" transform="translate(890,248)"/><path fill="#FEC90F" d="m0 0 5 1-1 6-3 2-2-7z" transform="translate(985)"/><path fill="#FDFDFD" d="m0 0 7 6-1 2-5-2-2-5z" transform="translate(949,272)"/><path fill="#FDCC25" d="m0 0 5 2v2l-6-2z" transform="translate(1461,386)"/><path fill="#FEC90F" d="m0 0" transform="translate(1437,389)"/></svg>